<?xml version="1.0" encoding="utf-8"?>
<svg viewBox="0 0 500 500" xmlns="http://www.w3.org/2000/svg">
  <g enable-background="new" transform="matrix(1, 0, 0, 1, -189.65151977539065, -61.63703918457031)">
    <clipPath id="cp0">
      <path transform="matrix(1,0,0,-1,0,595.276)" d="M 0 0 L 841.89 0 L 841.89 595.276 L 0 595.276 Z "/>
    </clipPath>
    <g clip-path="url(#cp0)">
      <path transform="matrix(1,0,0,-1,529.7495,102.170108)" d="M 0 0 C 131.648 -112.3 -24.325 -113.964 -24.325 -113.964 C -20.995 -118.307 -20.724 -124.367 -20.724 -124.367 C -38.459 -100.217 -108.444 -100.826 -108.444 -100.826 C -108.444 -100.826 -178.493 -100.217 -196.226 -124.367 C -196.226 -124.367 -195.957 -118.307 -192.627 -113.964 C -192.627 -113.964 -348.627 -112.3 -216.958 0 C -216.958 0 -344.395 -44.675 -318.622 -132.405 C -318.622 -132.405 -298.493 -179.074 -212.32 -179.074 C -212.32 -179.074 -217.968 -166.239 -201.879 -136.489 C -202.411 -138.149 -217.877 -187.12 -191.417 -213.637 C -191.565 -213.222 -193.377 -208.243 -191.588 -203.255 C -191.588 -203.255 -179.51 -214.672 -158.778 -221.511 C -137.989 -228.342 -134.962 -237.422 -130.956 -250.075 C -130.956 -250.075 -142.224 -239.83 -163.998 -235.586 C -185.745 -231.385 -188.565 -216.895 -188.565 -216.895 C -188.565 -216.895 -188.905 -217.041 -189.463 -217.352 C -191.974 -218.784 -199.177 -223.605 -205.075 -235.389 C -205.075 -235.389 -199.031 -286.522 -185.745 -299.803 C -185.745 -299.803 -157.575 -318.829 -151.112 -376.137 C -151.112 -376.137 -137.44 -391.568 -108.444 -391.568 C -79.449 -391.568 -65.827 -376.137 -65.827 -376.137 C -59.375 -318.829 -31.213 -299.803 -31.213 -299.803 C -17.927 -286.522 -11.89 -235.389 -11.89 -235.389 C -19.133 -220.906 -28.383 -216.895 -28.383 -216.895 C -28.383 -216.895 -31.213 -231.385 -52.954 -235.586 C -74.694 -239.83 -85.946 -250.075 -85.946 -250.075 C -81.942 -237.422 -78.917 -228.342 -58.168 -221.511 C -37.436 -214.672 -25.356 -203.255 -25.356 -203.255 C -23.594 -208.243 -25.391 -213.195 -25.542 -213.637 C .916 -187.12 -14.543 -138.149 -15.076 -136.489 C 1.012 -166.239 -4.64 -179.074 -4.64 -179.074 C 81.522 -179.074 101.643 -132.405 101.643 -132.405 C 127.42 -44.675 0 0 0 0 M -85.146 -344.885 C -85.146 -339.549 -81.908 -335.227 -77.905 -335.227 C -73.899 -335.227 -70.657 -339.549 -70.657 -344.885 C -70.657 -350.2 -73.899 -354.547 -77.905 -354.547 C -81.908 -354.547 -85.146 -350.2 -85.146 -344.885 M -131.758 -344.885 C -131.758 -350.2 -134.996 -354.547 -139.014 -354.547 C -143.028 -354.547 -146.27 -350.2 -146.27 -344.885 C -146.27 -339.549 -143.028 -335.227 -139.014 -335.227 C -134.996 -335.227 -131.758 -339.549 -131.758 -344.885 M -69.951 -198.962 L -102.445 -198.962 L -102.445 -195.352 C -83.304 -195.363 -82.725 -169.374 -102.295 -169.311 L -115.84 -169.308 L -115.84 -188.641 C -115.774 -193.366 -115.624 -194.884 -112.505 -195.265 L -106.979 -195.265 L -106.979 -198.962 L -138.595 -198.962 L -138.595 -195.352 C -131.714 -195.521 -131.486 -194.835 -131.402 -188.641 L -131.402 -150.115 C -131.486 -143.923 -131.714 -143.235 -138.595 -143.407 L -138.595 -139.794 L -106.979 -139.794 L -106.979 -143.493 L -112.507 -143.493 C -115.624 -143.872 -115.774 -145.393 -115.84 -150.115 L -115.84 -164.064 L -102.295 -164.053 C -86.768 -164.013 -86.768 -143.378 -102.33 -143.407 L -102.33 -139.794 L -69.951 -139.794 L -69.951 -143.493 C -76.918 -143.235 -77.379 -143.923 -77.379 -150.115 L -77.379 -188.641 C -77.379 -194.835 -76.918 -195.521 -69.951 -195.265 Z " fill="#ed1c24"/>
    </g>
  </g>
</svg>
